# xmcd
#
# Track frame offsets: 
#        150
#        31246
#        66871
#        111125
#        137299
#        171224
#        202092
#
# Disc length: 3083 seconds
#
# Revision: 0
# Processed by: cddbd v1.5.2PL0 Copyright (c) Steve Scherf et al.
# Submitted via: ExactAudioCopy v0.95b3
#
DISCID=5c0c0907
DTITLE=Chet Baker  - In New York (DCC Gold)   FLAC
DYEAR=1900
DGENRE=
TTITLE0=Fair Weather
TTITLE1=Polka Dots And Moonbeams
TTITLE2=Hotel 49
TTITLE3=Solar
TTITLE4=Blue Thoughts
TTITLE5=When Lights Are Low
TTITLE6=Soft Winds
EXTD=
EXTT0=
EXTT1=
EXTT2=
EXTT3=
EXTT4=
EXTT5=
EXTT6=
PLAYORDER=
